<?xml version="1.0" encoding="iso-8859-1"?>
<!-- Generator: Adobe Illustrator 18.1.1, SVG Export Plug-In . SVG Version: 6.00 Build 0)  -->
<svg version="1.1" id="Capa_1" xmlns="http://www.w3.org/2000/svg" xmlns:xlink="http://www.w3.org/1999/xlink" x="0px" y="0px"
	 viewBox="0 0 612 612" style="enable-background:new 0 0 612 612;" xml:space="preserve">
<g>
	<g id="Cassette">
		<path d="M365.961,324.737H246.039c-3.449,0-6.246,2.797-6.246,6.246s2.797,6.246,6.246,6.246h119.922
			c3.449,0,6.246-2.797,6.246-6.246S369.41,324.737,365.961,324.737z"/>
		<path d="M365.961,274.77H246.039c-3.449,0-6.246,2.797-6.246,6.246c0,3.449,2.797,6.246,6.246,6.246h119.922
			c3.449,0,6.246-2.797,6.246-6.246C372.207,277.567,369.41,274.77,365.961,274.77z"/>
		<path d="M561,91.799c-170,0-340,0-510,0C22.834,91.799,0,114.633,0,142.8c0,108.8,0,217.6,0,326.4c0,28.167,22.834,51,51,51
			c34.003,0,68.007,0,102.01,0c14.047-14.047,28.094-28.094,42.141-42.141c73.899,0,147.798,0,221.698,0
			c14.047,14.047,28.094,28.094,42.141,42.141c34.003,0,68.007,0,102.01,0c28.167,0,51-22.834,51-51c0-108.8,0-217.6,0-326.4
			C612,114.633,589.166,91.799,561,91.799z M458.4,366.941c-101.6,0-203.201,0-304.801,0c-33.657,0-60.941-27.285-60.941-60.941
			s27.285-60.941,60.941-60.941c101.6,0,203.201,0,304.801,0c33.657,0,60.941,27.285,60.941,60.941S492.057,366.941,458.4,366.941z"
			/>
		<path d="M458.4,257.55c-26.758,0-48.45,21.692-48.45,48.45s21.692,48.45,48.45,48.45c26.758,0,48.45-21.692,48.45-48.45
			C506.85,279.242,485.158,257.55,458.4,257.55z M458.4,341.957c-19.827,0-35.958-16.131-35.958-35.958s16.131-35.958,35.958-35.958
			c19.827,0,35.958,16.131,35.958,35.958S478.227,341.957,458.4,341.957z"/>
		<path d="M153.6,257.55c-26.758,0-48.45,21.692-48.45,48.45s21.692,48.45,48.45,48.45s48.45-21.692,48.45-48.45
			C202.049,279.242,180.357,257.55,153.6,257.55z M153.6,341.957c-19.827,0-35.958-16.131-35.958-35.958
			s16.131-35.958,35.958-35.958s35.958,16.131,35.958,35.958S173.427,341.957,153.6,341.957z"/>
		<polygon points="200.325,490.55 170.676,520.199 441.324,520.199 411.675,490.55 		"/>
	</g>
</g>
<g>
</g>
<g>
</g>
<g>
</g>
<g>
</g>
<g>
</g>
<g>
</g>
<g>
</g>
<g>
</g>
<g>
</g>
<g>
</g>
<g>
</g>
<g>
</g>
<g>
</g>
<g>
</g>
<g>
</g>
</svg>
