<?xml version="1.0" encoding="utf-8"?>
<!-- Generator: Adobe Illustrator 16.0.0, SVG Export Plug-In . SVG Version: 6.00 Build 0)  -->
<!DOCTYPE svg PUBLIC "-//W3C//DTD SVG 1.1//EN" "http://www.w3.org/Graphics/SVG/1.1/DTD/svg11.dtd">
<svg version="1.1" id="Capa_1" xmlns="http://www.w3.org/2000/svg" xmlns:xlink="http://www.w3.org/1999/xlink" x="0px" y="0px"
	 width="612px" height="612px" viewBox="0 0 612 612" enable-background="new 0 0 612 612" xml:space="preserve">
<g>
	<g id="soundcloud">
		<g>
			<path d="M522.729,277.559c-0.717-0.069-1.403-0.151-2.063-0.22c-9.59-78.237-74.825-137.968-153.188-137.968
				c-27.902,0-71.123,13.636-91.128,25.827l-6.591,4.018v302.753l256.658,0.66c44.788,0,85.585-47.966,85.585-100.638
				C612,322.539,574.464,282.829,522.729,277.559z M233.913,167.179c-7.595,0-13.76,6.151-13.76,13.76v275.192
				c0,7.609,6.164,13.76,13.76,13.76c7.596,0,13.76-6.149,13.76-13.76V180.939C247.673,173.344,241.509,167.179,233.913,167.179z
				 M178.875,194.699c-7.595,0-13.76,6.151-13.76,13.76v247.673c0,7.609,6.164,13.76,13.76,13.76s13.76-6.149,13.76-13.76V208.458
				C192.635,200.863,186.47,194.699,178.875,194.699z M123.837,194.699c-7.595,0-13.76,6.151-13.76,13.76v247.673
				c0,7.609,6.164,13.76,13.76,13.76c7.596,0,13.76-6.149,13.76-13.76V208.458C137.596,200.863,131.432,194.699,123.837,194.699z
				 M68.798,249.737c-7.595,0-13.76,6.151-13.76,13.76v192.635c0,7.609,6.164,13.76,13.76,13.76c7.596,0,13.76-6.149,13.76-13.76
				V263.497C82.558,255.901,76.393,249.737,68.798,249.737z M13.76,291.016c-7.595,0-13.76,6.151-13.76,13.76v123.836
				c0,7.607,6.164,13.76,13.76,13.76c7.596,0,13.76-6.151,13.76-13.76V304.775C27.519,297.18,21.355,291.016,13.76,291.016z"/>
		</g>
	</g>
</g>
</svg>
