<?xml version="1.0" encoding="iso-8859-1"?>
<!-- Generator: Adobe Illustrator 16.0.0, SVG Export Plug-In . SVG Version: 6.00 Build 0)  -->
<!DOCTYPE svg PUBLIC "-//W3C//DTD SVG 1.1//EN" "http://www.w3.org/Graphics/SVG/1.1/DTD/svg11.dtd">
<svg version="1.1" id="Capa_1" xmlns="http://www.w3.org/2000/svg" xmlns:xlink="http://www.w3.org/1999/xlink" x="0px" y="0px"
	 width="148.908px" height="148.909px" viewBox="0 0 148.908 148.909" style="enable-background:new 0 0 148.908 148.909;"
	 xml:space="preserve">
<g>
	<g>
		<path d="M133.422,24.818h-6.681c-3.224,0-7.106,2.429-8.669,5.251l-9.242,16.134c-1.864,3.362-5.406,4.893-9.252,4.893H47.429
			c-3.845,0-7.386-1.458-9.25-4.821l-9.255-16.526c-1.564-2.82-5.447-4.931-8.67-4.931h-6.691C5.774,24.818,0,31.417,0,39.2v70.504
			c0,7.787,5.774,14.387,13.562,14.387h119.86c7.785,0,15.486-6.6,15.486-14.387V39.2C148.908,31.417,141.207,24.818,133.422,24.818
			z M38.385,91.151c-5.833,0-10.577-4.746-10.577-10.579c0-5.831,4.744-10.578,10.577-10.578c5.833,0,10.574,4.745,10.574,10.578
			S44.215,91.151,38.385,91.151z M89.929,85.23c0,2.837-2.299,5.137-5.137,5.137H61.507c-2.835,0-5.137-2.3-5.137-5.137v-9.8
			c0-2.838,2.302-5.139,5.137-5.139h23.285c2.838,0,5.137,2.301,5.137,5.139V85.23z M108.011,91.151
			c-5.833,0-10.577-4.746-10.577-10.579c0-5.831,4.742-10.578,10.577-10.578c5.828,0,10.573,4.745,10.573,10.578
			S113.839,91.151,108.011,91.151z"/>
		<path d="M44.601,36.88c1.565,2.824,5.444,5.457,8.67,5.457h40.467c3.226,0,7.105-2.565,8.666-5.387l3.579-6.745
			c1.562-2.819,0.214-5.387-3.012-5.387H44.028c-3.227,0-4.573,2.427-3.011,5.251L44.601,36.88z"/>
	</g>
</g>
<g>
</g>
<g>
</g>
<g>
</g>
<g>
</g>
<g>
</g>
<g>
</g>
<g>
</g>
<g>
</g>
<g>
</g>
<g>
</g>
<g>
</g>
<g>
</g>
<g>
</g>
<g>
</g>
<g>
</g>
</svg>
